<svg width="145" height="37" viewBox="0 0 145 37" fill="none" xmlns="http://www.w3.org/2000/svg">
<g filter="url(#filter0_d_0_1)">
<path d="M7.98625 28V29H8.98625V28H7.98625ZM4.62625 28H3.62625V29H4.62625V28ZM4.62625 0.0799994V-0.920001H3.62625V0.0799994H4.62625ZM21.4662 2.12L20.7591 2.82714L20.766 2.83394L21.4662 2.12ZM22.1063 13.08L21.2947 12.4957L21.2925 12.4988L22.1063 13.08ZM17.9463 15.68L17.7204 14.7058L16.4646 14.997L17.0588 16.141L17.9463 15.68ZM24.3463 28V29H25.9926L25.2337 27.539L24.3463 28ZM20.5463 28L19.653 28.4496L19.9301 29H20.5463V28ZM14.5063 16L15.3995 15.5504L15.1224 15H14.5063V16ZM7.98625 16V15H6.98625V16H7.98625ZM18.8263 12.08L18.1458 11.3472L18.1391 11.3534L18.1326 11.3597L18.8263 12.08ZM18.8263 4.08L18.1326 4.80032L18.1391 4.80661L18.1458 4.81279L18.8263 4.08ZM7.98625 3.04V2.04H6.98625V3.04H7.98625ZM7.98625 13.12H6.98625V14.12H7.98625V13.12ZM7.98625 27H4.62625V29H7.98625V27ZM5.62625 28V0.0799994H3.62625V28H5.62625ZM4.62625 1.08H15.7463V-0.920001H4.62625V1.08ZM15.7463 1.08C18.011 1.08 19.6347 1.70267 20.7591 2.82711L22.1734 1.41289C20.5778 -0.182674 18.3881 -0.920001 15.7463 -0.920001V1.08ZM20.766 2.83394C21.9056 3.95163 22.5463 5.6197 22.5463 8H24.5463C24.5463 5.2603 23.8002 3.00837 22.1665 1.40606L20.766 2.83394ZM22.5463 8C22.5463 9.89654 22.1045 11.371 21.2947 12.4957L22.9178 13.6643C24.028 12.1224 24.5463 10.2101 24.5463 8H22.5463ZM21.2925 12.4988C20.5251 13.5732 19.3673 14.3239 17.7204 14.7058L18.1721 16.6542C20.2052 16.1827 21.8208 15.2001 22.92 13.6612L21.2925 12.4988ZM17.0588 16.141L23.4588 28.461L25.2337 27.539L18.8337 15.219L17.0588 16.141ZM24.3463 27H20.5463V29H24.3463V27ZM21.4395 27.5504L15.3995 15.5504L13.613 16.4496L19.653 28.4496L21.4395 27.5504ZM14.5063 15H7.98625V17H14.5063V15ZM6.98625 16V28H8.98625V16H6.98625ZM15.7463 14.12C17.2496 14.12 18.5582 13.7264 19.5199 12.8003L18.1326 11.3597C17.6543 11.8203 16.9096 12.12 15.7463 12.12V14.12ZM19.5067 12.8128C20.5069 11.8841 20.9463 10.602 20.9463 9.12H18.9463C18.9463 10.198 18.639 10.8893 18.1458 11.3472L19.5067 12.8128ZM20.9463 9.12V7.04H18.9463V9.12H20.9463ZM20.9463 7.04C20.9463 5.55796 20.5069 4.27593 19.5067 3.3472L18.1458 4.81279C18.639 5.27074 18.9463 5.96204 18.9463 7.04H20.9463ZM19.5199 3.35968C18.5582 2.43358 17.2496 2.04 15.7463 2.04V4.04C16.9096 4.04 17.6543 4.33975 18.1326 4.80032L19.5199 3.35968ZM15.7463 2.04H7.98625V4.04H15.7463V2.04ZM6.98625 3.04V13.12H8.98625V3.04H6.98625ZM7.98625 14.12H15.7463V12.12H7.98625V14.12ZM29.8402 28H28.8402V29H29.8402V28ZM29.8402 2.872V1.872H28.8402V2.872H29.8402ZM45.1762 2.872H46.1762V1.872H45.1762V2.872ZM45.1762 5.536V6.536H46.1762V5.536H45.1762ZM32.8642 5.536V4.536H31.8642V5.536H32.8642ZM32.8642 13.96H31.8642V14.96H32.8642V13.96ZM44.4562 13.96H45.4562V12.96H44.4562V13.96ZM44.4562 16.624V17.624H45.4562V16.624H44.4562ZM32.8642 16.624V15.624H31.8642V16.624H32.8642ZM32.8642 25.336H31.8642V26.336H32.8642V25.336ZM45.1762 25.336H46.1762V24.336H45.1762V25.336ZM45.1762 28V29H46.1762V28H45.1762ZM30.8402 28V2.872H28.8402V28H30.8402ZM29.8402 3.872H45.1762V1.872H29.8402V3.872ZM44.1762 2.872V5.536H46.1762V2.872H44.1762ZM45.1762 4.536H32.8642V6.536H45.1762V4.536ZM31.8642 5.536V13.96H33.8642V5.536H31.8642ZM32.8642 14.96H44.4562V12.96H32.8642V14.96ZM43.4562 13.96V16.624H45.4562V13.96H43.4562ZM44.4562 15.624H32.8642V17.624H44.4562V15.624ZM31.8642 16.624V25.336H33.8642V16.624H31.8642ZM32.8642 26.336H45.1762V24.336H32.8642V26.336ZM44.1762 25.336V28H46.1762V25.336H44.1762ZM45.1762 27H29.8402V29H45.1762V27ZM52.6645 27.28L52.1825 28.1563L52.1939 28.1624L52.6645 27.28ZM48.9925 24.04L48.3499 23.2738L47.6304 23.8772L48.1874 24.6332L48.9925 24.04ZM51.2245 22.168L52.0225 21.5654L51.3883 20.7255L50.5819 21.4018L51.2245 22.168ZM54.1765 24.868L53.6762 25.7339L53.6835 25.7381L53.6908 25.7422L54.1765 24.868ZM62.0965 24.472L61.4275 23.7286L61.4182 23.7372L62.0965 24.472ZM62.4565 18.244L63.1254 17.5007L63.1254 17.5007L62.4565 18.244ZM58.8925 16.696L59.1184 15.7218L59.1148 15.721L58.8925 16.696ZM56.8405 16.228L56.6171 17.2027L56.6181 17.203L56.8405 16.228ZM51.5485 13.852L50.8795 14.5953L50.8873 14.6023L50.8952 14.6092L51.5485 13.852ZM50.3605 6.364L51.2647 6.79101L51.2647 6.79101L50.3605 6.364ZM52.0525 4.204L51.4403 3.41328L51.434 3.41815L51.4278 3.42313L52.0525 4.204ZM54.6805 2.908L54.9552 3.86952L54.9625 3.86742L54.9699 3.86521L54.6805 2.908ZM62.9245 3.484L62.4646 4.37202L62.471 4.37528L62.9245 3.484ZM66.3805 6.544L66.9702 7.35163L67.7599 6.77497L67.2011 5.97251L66.3805 6.544ZM64.1125 8.2L63.3029 8.78697L63.8918 9.59931L64.7022 9.00763L64.1125 8.2ZM54.1045 6.148L54.6977 6.95306L54.7012 6.95046L54.1045 6.148ZM53.8885 11.944L53.2579 12.7201L53.2711 12.7308L53.2846 12.7411L53.8885 11.944ZM57.4525 13.384L57.6748 12.409L57.6741 12.4089L57.4525 13.384ZM59.5045 13.852L59.2821 14.827L59.2865 14.828L59.5045 13.852ZM64.8685 16.372L64.1538 17.0715L64.1538 17.0715L64.8685 16.372ZM65.9125 24.004L64.9958 23.6044L64.9914 23.6144L64.9873 23.6244L65.9125 24.004ZM64.2205 26.38L64.8773 27.1341L64.8773 27.1341L64.2205 26.38ZM61.4845 27.892L61.1682 26.9433L61.1618 26.9455L61.4845 27.892ZM57.8845 27.432C55.9683 27.432 54.3984 27.0714 53.1351 26.3976L52.1939 28.1624C53.8105 29.0246 55.7206 29.432 57.8845 29.432V27.432ZM53.1464 26.4038C51.8377 25.684 50.7226 24.7022 49.7975 23.4468L48.1874 24.6332C49.2784 26.1138 50.6113 27.292 52.1826 28.1562L53.1464 26.4038ZM49.6351 24.8062L51.8671 22.9342L50.5819 21.4018L48.3499 23.2738L49.6351 24.8062ZM50.4264 22.7706C51.3807 24.0343 52.4613 25.0319 53.6762 25.7339L54.6767 24.0021C53.7317 23.4561 52.8443 22.6537 52.0225 21.5654L50.4264 22.7706ZM53.6908 25.7422C54.9447 26.4387 56.39 26.768 57.9925 26.768V24.768C56.6669 24.768 55.5683 24.4973 54.6621 23.9938L53.6908 25.7422ZM57.9925 26.768C59.9401 26.768 61.5898 26.3006 62.7747 25.2068L61.4182 23.7372C60.7312 24.3714 59.6449 24.768 57.9925 24.768V26.768ZM62.7654 25.2153C63.9617 24.1387 64.5365 22.7032 64.5365 21.016H62.5365C62.5365 22.2088 62.1513 23.0773 61.4275 23.7287L62.7654 25.2153ZM64.5365 21.016C64.5365 19.6055 64.1049 18.3822 63.1254 17.5007L61.7875 18.9873C62.2481 19.4018 62.5365 20.0265 62.5365 21.016H64.5365ZM63.1254 17.5007C62.2174 16.6834 60.8317 16.1191 59.1184 15.7218L58.6666 17.6702C60.2653 18.0409 61.2556 18.5086 61.7875 18.9873L63.1254 17.5007ZM59.1148 15.721L57.0628 15.253L56.6181 17.203L58.6701 17.671L59.1148 15.721ZM57.0638 15.2533C54.8506 14.7461 53.2584 14.0065 52.2017 13.0948L50.8952 14.6092C52.2865 15.8095 54.2224 16.6539 56.6171 17.2027L57.0638 15.2533ZM52.2174 13.1087C51.2708 12.2567 50.7485 11.0394 50.7485 9.316H48.7485C48.7485 11.4805 49.4261 13.2873 50.8795 14.5953L52.2174 13.1087ZM50.7485 9.316C50.7485 8.33677 50.9289 7.50223 51.2647 6.79101L49.4562 5.93699C48.9761 6.95377 48.7485 8.08723 48.7485 9.316H50.7485ZM51.2647 6.79101C51.6101 6.05956 52.0804 5.46225 52.6772 4.98487L51.4278 3.42313C50.5845 4.09775 49.9268 4.94044 49.4562 5.93699L51.2647 6.79101ZM52.6646 4.99472C53.2972 4.50501 54.0556 4.12656 54.9552 3.86952L54.4057 1.94647C53.2894 2.26544 52.2958 2.75098 51.4403 3.41328L52.6646 4.99472ZM54.9699 3.86521C55.8963 3.58512 56.9255 3.44 58.0645 3.44V1.44C56.7555 1.44 55.5286 1.60688 54.3911 1.95079L54.9699 3.86521ZM58.0645 3.44C59.84 3.44 61.2941 3.76586 62.4646 4.37199L63.3843 2.596C61.8668 1.81014 60.0809 1.44 58.0645 1.44V3.44ZM62.471 4.37528C63.6823 4.99156 64.7115 5.89737 65.5599 7.11549L67.2011 5.97251C66.1774 4.50263 64.9026 3.36843 63.3779 2.59272L62.471 4.37528ZM65.7908 5.73637L63.5228 7.39237L64.7022 9.00763L66.9702 7.35163L65.7908 5.73637ZM64.9221 7.61303C64.1456 6.54203 63.1983 5.68622 62.0817 5.05986L61.1032 6.80414C61.9546 7.28177 62.6873 7.93797 63.3029 8.78697L64.9221 7.61303ZM62.0817 5.05986C60.9103 4.40269 59.5062 4.104 57.9205 4.104V6.104C59.2628 6.104 60.3067 6.3573 61.1032 6.80414L62.0817 5.05986ZM57.9205 4.104C56.1773 4.104 54.6709 4.48068 53.5078 5.34554L54.7012 6.95046C55.4101 6.42332 56.4477 6.104 57.9205 6.104V4.104ZM53.5113 5.34294C52.2891 6.24351 51.7365 7.59649 51.7365 9.208H53.7365C53.7365 8.08351 54.0959 7.39649 54.6977 6.95305L53.5113 5.34294ZM51.7365 9.208C51.7365 10.6384 52.2063 11.8657 53.2579 12.7201L54.5191 11.1679C54.0346 10.7743 53.7365 10.1776 53.7365 9.208H51.7365ZM53.2846 12.7411C54.2396 13.4645 55.5856 13.9852 57.2308 14.3591L57.6741 12.4089C56.1514 12.0628 55.1214 11.6235 54.4923 11.1469L53.2846 12.7411ZM57.2301 14.359L59.2821 14.827L59.7268 12.877L57.6748 12.409L57.2301 14.359ZM59.2865 14.828C61.6737 15.361 63.2442 16.1421 64.1538 17.0715L65.5831 15.6725C64.2847 14.3459 62.2792 13.447 59.7224 12.876L59.2865 14.828ZM64.1538 17.0715C65.0414 17.9784 65.5245 19.2094 65.5245 20.872H67.5245C67.5245 18.7906 66.9035 17.0216 65.5831 15.6725L64.1538 17.0715ZM65.5245 20.872C65.5245 21.9041 65.3422 22.8097 64.9958 23.6044L66.8292 24.4036C67.2987 23.3263 67.5245 22.1439 67.5245 20.872H65.5245ZM64.9873 23.6244C64.6608 24.4202 64.1872 25.0828 63.5637 25.6259L64.8773 27.1341C65.7417 26.3812 66.3961 25.4598 66.8376 24.3836L64.9873 23.6244ZM63.5637 25.6259C62.9334 26.1749 62.1421 26.6187 61.1682 26.9433L61.8007 28.8407C62.9869 28.4453 64.0196 27.8811 64.8773 27.1341L63.5637 25.6259ZM61.1618 26.9455C60.2285 27.2637 59.1405 27.432 57.8845 27.432V29.432C59.3165 29.432 60.6285 29.2403 61.8071 28.8385L61.1618 26.9455ZM74.5904 2.872H75.5904V1.872H74.5904V2.872ZM75.9224 23.896L75.1076 24.4758L75.113 24.4832L75.9224 23.896ZM85.2824 23.896L86.0919 24.4833L86.0972 24.4758L85.2824 23.896ZM86.6144 2.872V1.872H85.6144V2.872H86.6144ZM89.6384 2.872H90.6384V1.872H89.6384V2.872ZM89.1344 22.456L88.1643 22.2135L88.1622 22.2217L88.1603 22.2299L89.1344 22.456ZM87.5864 25.804L88.3632 26.4338L88.3632 26.4338L87.5864 25.804ZM84.7424 27.784L84.3976 26.8453L84.3913 26.8477L84.7424 27.784ZM76.2464 27.784L75.8888 28.7179L75.8953 28.7203L76.2464 27.784ZM73.5104 25.804L74.2975 25.1871L74.2975 25.1871L73.5104 25.804ZM71.9984 22.456L71.0206 22.6655L71.0224 22.6738L71.0243 22.6821L71.9984 22.456ZM71.5664 2.872V1.872H70.5664V2.872H71.5664ZM73.5904 2.872V18.424H75.5904V2.872H73.5904ZM73.5904 18.424C73.5904 20.9224 74.0484 22.987 75.1076 24.4758L76.7372 23.3162C76.0205 22.309 75.5904 20.7256 75.5904 18.424H73.5904ZM75.113 24.4832C76.2667 26.0734 78.2101 26.732 80.6024 26.732V24.732C78.5307 24.732 77.3542 24.1666 76.7319 23.3088L75.113 24.4832ZM80.6024 26.732C82.9947 26.732 84.9382 26.0734 86.0919 24.4832L84.473 23.3088C83.8507 24.1666 82.6741 24.732 80.6024 24.732V26.732ZM86.0972 24.4758C87.1565 22.987 87.6144 20.9224 87.6144 18.424H85.6144C85.6144 20.7256 85.1844 22.309 84.4676 23.3162L86.0972 24.4758ZM87.6144 18.424V2.872H85.6144V18.424H87.6144ZM86.6144 3.872H89.6384V1.872H86.6144V3.872ZM88.6384 2.872V17.704H90.6384V2.872H88.6384ZM88.6384 17.704C88.6384 19.4704 88.4754 20.9692 88.1643 22.2135L90.1046 22.6985C90.4655 21.2548 90.6384 19.5856 90.6384 17.704H88.6384ZM88.1603 22.2299C87.8756 23.4562 87.4164 24.4259 86.8097 25.1742L88.3632 26.4338C89.1965 25.4061 89.7692 24.1438 90.1085 22.6821L88.1603 22.2299ZM86.8097 25.1742C86.2139 25.909 85.4212 26.4693 84.3976 26.8453L85.0873 28.7227C86.4157 28.2347 87.519 27.475 88.3632 26.4338L86.8097 25.1742ZM84.3913 26.8477C83.3844 27.2253 82.0954 27.432 80.4944 27.432V29.432C82.2535 29.432 83.7965 29.2067 85.0936 28.7203L84.3913 26.8477ZM80.4944 27.432C78.8935 27.432 77.6045 27.2253 76.5976 26.8477L75.8953 28.7203C77.1924 29.2067 78.7354 29.432 80.4944 29.432V27.432ZM76.6041 26.8501C75.6329 26.4782 74.8738 25.9224 74.2975 25.1871L72.7234 26.4209C73.5391 27.4616 74.604 28.2258 75.8888 28.7179L76.6041 26.8501ZM74.2975 25.1871C73.7094 24.4368 73.2587 23.4626 72.9725 22.2299L71.0243 22.6821C71.3622 24.1374 71.9194 25.3952 72.7234 26.4209L74.2975 25.1871ZM72.9762 22.2465C72.7069 20.9895 72.5664 19.4789 72.5664 17.704H70.5664C70.5664 19.5771 70.714 21.2345 71.0206 22.6655L72.9762 22.2465ZM72.5664 17.704V2.872H70.5664V17.704H72.5664ZM71.5664 3.872H74.5904V1.872H71.5664V3.872ZM115.729 6.832H116.729V5.832H115.729V6.832ZM115.549 6.832V5.832H114.933L114.656 6.38174L115.549 6.832ZM113.425 11.044L114.301 11.5255L114.31 11.51L114.318 11.4943L113.425 11.044ZM107.413 21.988L106.536 22.4695L107.413 24.0649L108.289 22.4695L107.413 21.988ZM101.401 11.044L100.508 11.4943L100.516 11.51L100.524 11.5255L101.401 11.044ZM99.2769 6.832L100.17 6.38174L99.8926 5.832H99.2769V6.832ZM99.0969 6.832V5.832H98.0969V6.832H99.0969ZM99.0969 28V29H100.097V28H99.0969ZM96.1449 28H95.1449V29H96.1449V28ZM96.1449 2.872V1.872H95.1449V2.872H96.1449ZM100.177 2.872L101.06 2.40239L100.778 1.872H100.177V2.872ZM107.377 16.408L106.494 16.8776L106.776 17.408H107.377V16.408ZM107.557 16.408V17.408H108.156L108.439 16.8794L107.557 16.408ZM114.793 2.872V1.872H114.194L113.911 2.40056L114.793 2.872ZM118.681 2.872H119.681V1.872H118.681V2.872ZM118.681 28V29H119.681V28H118.681ZM115.729 28H114.729V29H115.729V28ZM115.729 5.832H115.549V7.832H115.729V5.832ZM114.656 6.38174L112.532 10.5937L114.318 11.4943L116.442 7.28226L114.656 6.38174ZM112.548 10.5625L106.536 21.5065L108.289 22.4695L114.301 11.5255L112.548 10.5625ZM108.289 21.5065L102.277 10.5625L100.524 11.5255L106.536 22.4695L108.289 21.5065ZM102.294 10.5937L100.17 6.38174L98.384 7.28226L100.508 11.4943L102.294 10.5937ZM99.2769 5.832H99.0969V7.832H99.2769V5.832ZM98.0969 6.832V28H100.097V6.832H98.0969ZM99.0969 27H96.1449V29H99.0969V27ZM97.1449 28V2.872H95.1449V28H97.1449ZM96.1449 3.872H100.177V1.872H96.1449V3.872ZM99.294 3.34161L106.494 16.8776L108.26 15.9384L101.06 2.40239L99.294 3.34161ZM107.377 17.408H107.557V15.408H107.377V17.408ZM108.439 16.8794L115.675 3.34344L113.911 2.40056L106.675 15.9366L108.439 16.8794ZM114.793 3.872H118.681V1.872H114.793V3.872ZM117.681 2.872V28H119.681V2.872H117.681ZM118.681 27H115.729V29H118.681V27ZM116.729 28V6.832H114.729V28H116.729ZM125.36 28H124.36V29H125.36V28ZM125.36 2.872V1.872H124.36V2.872H125.36ZM140.696 2.872H141.696V1.872H140.696V2.872ZM140.696 5.536V6.536H141.696V5.536H140.696ZM128.384 5.536V4.536H127.384V5.536H128.384ZM128.384 13.96H127.384V14.96H128.384V13.96ZM139.976 13.96H140.976V12.96H139.976V13.96ZM139.976 16.624V17.624H140.976V16.624H139.976ZM128.384 16.624V15.624H127.384V16.624H128.384ZM128.384 25.336H127.384V26.336H128.384V25.336ZM140.696 25.336H141.696V24.336H140.696V25.336ZM140.696 28V29H141.696V28H140.696ZM126.36 28V2.872H124.36V28H126.36ZM125.36 3.872H140.696V1.872H125.36V3.872ZM139.696 2.872V5.536H141.696V2.872H139.696ZM140.696 4.536H128.384V6.536H140.696V4.536ZM127.384 5.536V13.96H129.384V5.536H127.384ZM128.384 14.96H139.976V12.96H128.384V14.96ZM138.976 13.96V16.624H140.976V13.96H138.976ZM139.976 15.624H128.384V17.624H139.976V15.624ZM127.384 16.624V25.336H129.384V16.624H127.384ZM128.384 26.336H140.696V24.336H128.384V26.336ZM139.696 25.336V28H141.696V25.336H139.696ZM140.696 27H125.36V29H140.696V27Z" fill="black"/>
</g>
<path d="M107.5 13L113.129 1.75H101.871L107.5 13Z" fill="#6ACC80"/>
<defs>
<filter id="filter0_d_0_1" x="0.62625" y="0.0800018" width="144.069" height="36.352" filterUnits="userSpaceOnUse" color-interpolation-filters="sRGB">
<feFlood flood-opacity="0" result="BackgroundImageFix"/>
<feColorMatrix in="SourceAlpha" type="matrix" values="0 0 0 0 0 0 0 0 0 0 0 0 0 0 0 0 0 0 127 0" result="hardAlpha"/>
<feOffset dy="4"/>
<feGaussianBlur stdDeviation="2"/>
<feComposite in2="hardAlpha" operator="out"/>
<feColorMatrix type="matrix" values="0 0 0 0 0 0 0 0 0 0 0 0 0 0 0 0 0 0 0.45 0"/>
<feBlend mode="normal" in2="BackgroundImageFix" result="effect1_dropShadow_0_1"/>
<feBlend mode="normal" in="SourceGraphic" in2="effect1_dropShadow_0_1" result="shape"/>
</filter>
</defs>
</svg>
